<svg width="3200" height="1024" viewBox="0 0 3200 1024" fill="none" xmlns="http://www.w3.org/2000/svg">
<g filter="url(#filter0_i_60_152)">
<rect width="1024" height="1024" rx="128" fill="url(#paint0_linear_60_152)"/>
<rect x="8" y="8" width="1008" height="1008" rx="120" stroke="#F4F4F4" stroke-width="16"/>
<g filter="url(#filter1_d_60_152)">
<path d="M328.448 492.584H280.32L293.12 440.36H340.736L355.072 379.944L421.12 369.704L403.712 440.36H495.36L482.56 492.584H391.424L368.896 586.28C367.189 594.813 366.336 601.469 366.336 606.248C366.336 616.488 369.749 623.315 376.576 626.728C383.744 630.141 391.765 631.848 400.64 631.848C409.856 631.848 419.243 630.824 428.8 628.776C438.699 626.387 448.256 623.315 457.472 619.56L456.96 672.296C446.379 677.075 434.603 680.659 421.632 683.048C409.003 685.437 396.373 686.632 383.744 686.632C356.437 686.632 335.957 680.829 322.304 669.224C308.992 657.277 302.336 640.04 302.336 617.512C302.336 612.051 302.677 606.589 303.36 601.128C304.043 595.325 305.237 589.181 306.944 582.696L328.448 492.584ZM608.512 632.872C618.069 632.872 626.091 630.824 632.576 626.728C639.061 622.291 644.693 617.171 649.472 611.368C650.155 606.589 650.837 601.981 651.52 597.544C652.203 593.107 653.227 587.987 654.592 582.184L676.608 491.048C672.853 490.024 668.928 489.341 664.832 489C660.736 488.659 656.811 488.488 653.056 488.488C641.109 488.488 630.357 491.389 620.8 497.192C611.243 502.653 603.051 509.992 596.224 519.208C589.397 528.424 584.107 539.005 580.352 550.952C576.939 562.899 575.232 575.187 575.232 587.816C575.232 596.691 575.915 604.029 577.28 609.832C578.987 615.635 581.205 620.243 583.936 623.656C587.008 627.069 590.592 629.459 594.688 630.824C598.784 632.189 603.392 632.872 608.512 632.872ZM585.472 686.632C562.944 686.291 545.195 678.269 532.224 662.568C519.253 646.525 512.768 623.315 512.768 592.936C512.768 569.725 516.693 548.392 524.544 528.936C532.395 509.48 543.147 492.925 556.8 479.272C570.453 465.277 586.325 454.525 604.416 447.016C622.848 439.165 642.304 435.24 662.784 435.24C676.779 435.24 690.944 436.605 705.28 439.336C719.616 442.067 734.123 446.333 748.8 452.136L717.056 582.696C715.691 588.84 714.667 594.984 713.984 601.128C713.301 606.931 712.96 612.904 712.96 619.048C712.96 628.947 713.813 638.675 715.52 648.232C717.568 657.448 720.128 666.664 723.2 675.88L667.904 685.096C667.221 683.731 666.368 682.024 665.344 679.976C664.32 677.928 663.296 675.709 662.272 673.32C661.248 670.931 660.395 668.883 659.712 667.176C659.029 665.128 658.517 663.592 658.176 662.568C651.349 667.688 642.133 672.979 630.528 678.44C618.923 683.901 603.904 686.632 585.472 686.632Z" fill="url(#paint1_linear_60_152)"/>
</g>
</g>
<g filter="url(#filter2_i_60_152)">
<rect x="1088" width="1024" height="1024" rx="128" fill="url(#paint2_linear_60_152)"/>
<rect x="1096" y="8" width="1008" height="1008" rx="120" stroke="#F4F4F4" stroke-width="16"/>
<g filter="url(#filter3_d_60_152)">
<path d="M1447.81 634.408C1465.9 634.408 1478.36 632.019 1485.18 627.24C1492.01 622.461 1495.42 616.829 1495.42 610.344C1495.42 607.272 1494.74 604.541 1493.38 602.152C1492.35 599.763 1490.3 597.544 1487.23 595.496C1484.5 593.107 1480.58 590.888 1475.46 588.84C1470.34 586.451 1463.85 583.72 1456 580.648C1446.44 577.235 1438.08 573.651 1430.91 569.896C1423.74 566.141 1417.77 561.875 1412.99 557.096C1408.21 551.976 1404.63 546.173 1402.24 539.688C1399.85 533.203 1398.66 525.523 1398.66 516.648C1398.66 491.731 1407.36 471.763 1424.77 456.744C1442.52 441.725 1468.97 434.216 1504.13 434.216C1521.54 434.216 1537.41 435.752 1551.74 438.824C1566.42 441.896 1578.03 445.48 1586.56 449.576L1563.52 499.24C1555.67 495.485 1546.62 492.413 1536.38 490.024C1526.49 487.635 1513.86 486.44 1498.5 486.44C1495.08 486.44 1491.16 486.781 1486.72 487.464C1482.62 487.805 1478.7 488.829 1474.94 490.536C1471.19 492.243 1467.95 494.632 1465.22 497.704C1462.83 500.435 1461.63 504.019 1461.63 508.456C1461.63 511.528 1461.97 514.259 1462.66 516.648C1463.68 518.696 1465.56 520.915 1468.29 523.304C1471.02 525.352 1474.94 527.571 1480.06 529.96C1485.18 532.349 1492.01 535.08 1500.54 538.152C1510.78 542.248 1519.49 546.344 1526.66 550.44C1534.17 554.536 1540.31 559.144 1545.09 564.264C1550.21 569.384 1553.79 575.357 1555.84 582.184C1558.23 589.011 1559.42 597.203 1559.42 606.76C1559.42 616.659 1557.38 626.387 1553.28 635.944C1549.18 645.501 1542.7 654.205 1533.82 662.056C1525.29 669.565 1514.03 675.709 1500.03 680.488C1486.04 685.267 1469.31 687.656 1449.86 687.656C1435.86 687.656 1423.57 686.803 1412.99 685.096C1402.41 683.389 1393.19 681.341 1385.34 678.952C1377.49 676.563 1370.84 674.173 1365.38 671.784C1360.26 669.053 1356.16 666.835 1353.09 665.128L1376.64 615.464C1383.47 619.219 1392.85 623.315 1404.8 627.752C1416.75 632.189 1431.08 634.408 1447.81 634.408ZM1623.42 587.816C1623.42 565.629 1627.35 545.149 1635.2 526.376C1643.05 507.603 1653.97 491.56 1667.97 478.248C1682.3 464.595 1699.2 454.013 1718.66 446.504C1738.11 438.653 1759.62 434.728 1783.17 434.728C1792.38 434.728 1800.41 435.069 1807.23 435.752C1814.4 436.435 1820.89 437.459 1826.69 438.824C1832.49 439.848 1837.61 441.213 1842.05 442.92C1846.83 444.285 1851.43 445.992 1855.87 448.04L1833.34 498.216C1827.88 495.827 1820.89 493.779 1812.35 492.072C1803.82 490.024 1794.09 489 1783.17 489C1769.17 489 1756.37 491.219 1744.77 495.656C1733.16 499.752 1722.92 505.896 1714.05 514.088C1705.51 522.28 1698.86 532.349 1694.08 544.296C1689.3 556.243 1686.91 569.896 1686.91 585.256C1686.91 592.083 1687.77 598.397 1689.47 604.2C1691.18 609.661 1694.25 614.44 1698.69 618.536C1703.47 622.632 1709.78 625.875 1717.63 628.264C1725.82 630.653 1736.06 631.848 1748.35 631.848C1761.66 631.848 1773.95 630.653 1785.22 628.264C1796.82 625.533 1805.53 622.803 1811.33 620.072L1817.47 670.248C1813.38 672.296 1808.94 674.344 1804.16 676.392C1799.38 678.44 1793.75 680.147 1787.26 681.512C1780.78 683.219 1773.1 684.413 1764.22 685.096C1755.69 686.12 1745.45 686.632 1733.5 686.632C1712.68 686.632 1695.27 684.072 1681.28 678.952C1667.29 673.491 1656.02 666.323 1647.49 657.448C1638.95 648.573 1632.81 638.163 1629.06 626.216C1625.3 613.928 1623.42 601.128 1623.42 587.816Z" fill="url(#paint3_linear_60_152)"/>
</g>
</g>
<g filter="url(#filter4_i_60_152)">
<rect x="2176" width="1024" height="1024" rx="128" fill="url(#paint4_linear_60_152)"/>
<rect x="2184" y="8" width="1008" height="1008" rx="120" stroke="#F4F4F4" stroke-width="16"/>
<g filter="url(#filter5_d_60_152)">
<path d="M2545.02 529.96C2545.02 553.171 2541.44 574.504 2534.27 593.96C2527.1 613.416 2517.03 630.141 2504.06 644.136C2491.09 657.789 2475.56 668.541 2457.47 676.392C2439.38 683.901 2419.41 687.656 2397.57 687.656C2383.91 687.656 2368.9 686.291 2352.51 683.56C2336.13 680.829 2321.45 677.075 2308.48 672.296L2389.38 336.424L2454.91 325.672L2425.73 447.528C2432.9 443.773 2440.41 440.872 2448.26 438.824C2456.45 436.776 2464.3 435.752 2471.81 435.752C2494.34 435.752 2512.09 443.432 2525.06 458.792C2538.37 473.811 2545.02 497.533 2545.02 529.96ZM2381.18 631.336C2384.94 632.019 2388.86 632.531 2392.96 632.872C2397.06 633.213 2400.98 633.384 2404.74 633.384C2417.37 633.384 2428.46 630.653 2438.02 625.192C2447.57 619.731 2455.59 612.563 2462.08 603.688C2468.91 594.472 2474.03 584.061 2477.44 572.456C2480.85 560.509 2482.56 548.051 2482.56 535.08C2482.56 517.331 2479.49 505.213 2473.34 498.728C2467.54 491.901 2459.69 488.488 2449.79 488.488C2444.33 488.488 2438.02 489.512 2430.85 491.56C2424.02 493.608 2418.22 496.509 2413.44 500.264L2381.18 631.336ZM2672.51 632.872C2682.07 632.872 2690.09 630.824 2696.58 626.728C2703.06 622.291 2708.69 617.171 2713.47 611.368C2714.15 606.589 2714.84 601.981 2715.52 597.544C2716.2 593.107 2717.23 587.987 2718.59 582.184L2740.61 491.048C2736.85 490.024 2732.93 489.341 2728.83 489C2724.74 488.659 2720.81 488.488 2717.06 488.488C2705.11 488.488 2694.36 491.389 2684.8 497.192C2675.24 502.653 2667.05 509.992 2660.22 519.208C2653.4 528.424 2648.11 539.005 2644.35 550.952C2640.94 562.899 2639.23 575.187 2639.23 587.816C2639.23 596.691 2639.91 604.029 2641.28 609.832C2642.99 615.635 2645.21 620.243 2647.94 623.656C2651.01 627.069 2654.59 629.459 2658.69 630.824C2662.78 632.189 2667.39 632.872 2672.51 632.872ZM2649.47 686.632C2626.94 686.291 2609.19 678.269 2596.22 662.568C2583.25 646.525 2576.77 623.315 2576.77 592.936C2576.77 569.725 2580.69 548.392 2588.54 528.936C2596.39 509.48 2607.15 492.925 2620.8 479.272C2634.45 465.277 2650.33 454.525 2668.42 447.016C2686.85 439.165 2706.3 435.24 2726.78 435.24C2740.78 435.24 2754.94 436.605 2769.28 439.336C2783.62 442.067 2798.12 446.333 2812.8 452.136L2781.06 582.696C2779.69 588.84 2778.67 594.984 2777.98 601.128C2777.3 606.931 2776.96 612.904 2776.96 619.048C2776.96 628.947 2777.81 638.675 2779.52 648.232C2781.57 657.448 2784.13 666.664 2787.2 675.88L2731.9 685.096C2731.22 683.731 2730.37 682.024 2729.34 679.976C2728.32 677.928 2727.3 675.709 2726.27 673.32C2725.25 670.931 2724.39 668.883 2723.71 667.176C2723.03 665.128 2722.52 663.592 2722.18 662.568C2715.35 667.688 2706.13 672.979 2694.53 678.44C2682.92 683.901 2667.9 686.632 2649.47 686.632ZM3049.86 502.824C3043.37 500.435 3035.69 498.557 3026.82 497.192C3017.94 495.827 3007.02 495.144 2994.05 495.144C2985.17 495.144 2975.96 495.827 2966.4 497.192C2957.18 498.216 2948.65 500.093 2940.8 502.824L2898.3 681H2835.33L2889.09 456.232C2905.13 449.747 2922.37 444.797 2940.8 441.384C2959.57 437.629 2977.15 435.752 2993.54 435.752C3012.65 435.752 3028.18 436.605 3040.13 438.312C3052.42 440.019 3063.68 442.237 3073.92 444.968L3049.86 502.824Z" fill="url(#paint5_linear_60_152)"/>
</g>
</g>
<defs>
<filter id="filter0_i_60_152" x="0" y="-16" width="1024" height="1040" filterUnits="userSpaceOnUse" color-interpolation-filters="sRGB">
<feFlood flood-opacity="0" result="BackgroundImageFix"/>
<feBlend mode="normal" in="SourceGraphic" in2="BackgroundImageFix" result="shape"/>
<feColorMatrix in="SourceAlpha" type="matrix" values="0 0 0 0 0 0 0 0 0 0 0 0 0 0 0 0 0 0 127 0" result="hardAlpha"/>
<feMorphology radius="16" operator="erode" in="SourceAlpha" result="effect1_innerShadow_60_152"/>
<feOffset dy="-32"/>
<feComposite in2="hardAlpha" operator="arithmetic" k2="-1" k3="1"/>
<feColorMatrix type="matrix" values="0 0 0 0 0.803922 0 0 0 0 0.803922 0 0 0 0 0.803922 0 0 0 0.5 0"/>
<feBlend mode="normal" in2="shape" result="effect1_innerShadow_60_152"/>
</filter>
<filter id="filter1_d_60_152" x="264.32" y="357.704" width="500.48" height="348.928" filterUnits="userSpaceOnUse" color-interpolation-filters="sRGB">
<feFlood flood-opacity="0" result="BackgroundImageFix"/>
<feColorMatrix in="SourceAlpha" type="matrix" values="0 0 0 0 0 0 0 0 0 0 0 0 0 0 0 0 0 0 127 0" result="hardAlpha"/>
<feOffset dy="4"/>
<feGaussianBlur stdDeviation="8"/>
<feComposite in2="hardAlpha" operator="out"/>
<feColorMatrix type="matrix" values="0 0 0 0 0 0 0 0 0 0 0 0 0 0 0 0 0 0 0.5 0"/>
<feBlend mode="normal" in2="BackgroundImageFix" result="effect1_dropShadow_60_152"/>
<feBlend mode="normal" in="SourceGraphic" in2="effect1_dropShadow_60_152" result="shape"/>
</filter>
<filter id="filter2_i_60_152" x="1088" y="-16" width="1024" height="1040" filterUnits="userSpaceOnUse" color-interpolation-filters="sRGB">
<feFlood flood-opacity="0" result="BackgroundImageFix"/>
<feBlend mode="normal" in="SourceGraphic" in2="BackgroundImageFix" result="shape"/>
<feColorMatrix in="SourceAlpha" type="matrix" values="0 0 0 0 0 0 0 0 0 0 0 0 0 0 0 0 0 0 127 0" result="hardAlpha"/>
<feMorphology radius="16" operator="erode" in="SourceAlpha" result="effect1_innerShadow_60_152"/>
<feOffset dy="-32"/>
<feComposite in2="hardAlpha" operator="arithmetic" k2="-1" k3="1"/>
<feColorMatrix type="matrix" values="0 0 0 0 0.803922 0 0 0 0 0.803922 0 0 0 0 0.803922 0 0 0 0.5 0"/>
<feBlend mode="normal" in2="shape" result="effect1_innerShadow_60_152"/>
</filter>
<filter id="filter3_d_60_152" x="1337.09" y="422.216" width="534.784" height="285.44" filterUnits="userSpaceOnUse" color-interpolation-filters="sRGB">
<feFlood flood-opacity="0" result="BackgroundImageFix"/>
<feColorMatrix in="SourceAlpha" type="matrix" values="0 0 0 0 0 0 0 0 0 0 0 0 0 0 0 0 0 0 127 0" result="hardAlpha"/>
<feOffset dy="4"/>
<feGaussianBlur stdDeviation="8"/>
<feComposite in2="hardAlpha" operator="out"/>
<feColorMatrix type="matrix" values="0 0 0 0 0 0 0 0 0 0 0 0 0 0 0 0 0 0 0.5 0"/>
<feBlend mode="normal" in2="BackgroundImageFix" result="effect1_dropShadow_60_152"/>
<feBlend mode="normal" in="SourceGraphic" in2="effect1_dropShadow_60_152" result="shape"/>
</filter>
<filter id="filter4_i_60_152" x="2176" y="-16" width="1024" height="1040" filterUnits="userSpaceOnUse" color-interpolation-filters="sRGB">
<feFlood flood-opacity="0" result="BackgroundImageFix"/>
<feBlend mode="normal" in="SourceGraphic" in2="BackgroundImageFix" result="shape"/>
<feColorMatrix in="SourceAlpha" type="matrix" values="0 0 0 0 0 0 0 0 0 0 0 0 0 0 0 0 0 0 127 0" result="hardAlpha"/>
<feMorphology radius="16" operator="erode" in="SourceAlpha" result="effect1_innerShadow_60_152"/>
<feOffset dy="-32"/>
<feComposite in2="hardAlpha" operator="arithmetic" k2="-1" k3="1"/>
<feColorMatrix type="matrix" values="0 0 0 0 0.803922 0 0 0 0 0.803922 0 0 0 0 0.803922 0 0 0 0.5 0"/>
<feBlend mode="normal" in2="shape" result="effect1_innerShadow_60_152"/>
</filter>
<filter id="filter5_d_60_152" x="2292.48" y="313.672" width="797.44" height="393.984" filterUnits="userSpaceOnUse" color-interpolation-filters="sRGB">
<feFlood flood-opacity="0" result="BackgroundImageFix"/>
<feColorMatrix in="SourceAlpha" type="matrix" values="0 0 0 0 0 0 0 0 0 0 0 0 0 0 0 0 0 0 127 0" result="hardAlpha"/>
<feOffset dy="4"/>
<feGaussianBlur stdDeviation="8"/>
<feComposite in2="hardAlpha" operator="out"/>
<feColorMatrix type="matrix" values="0 0 0 0 0 0 0 0 0 0 0 0 0 0 0 0 0 0 0.5 0"/>
<feBlend mode="normal" in2="BackgroundImageFix" result="effect1_dropShadow_60_152"/>
<feBlend mode="normal" in="SourceGraphic" in2="effect1_dropShadow_60_152" result="shape"/>
</filter>
<linearGradient id="paint0_linear_60_152" x1="512" y1="1024" x2="512" y2="0" gradientUnits="userSpaceOnUse">
<stop stop-color="white"/>
<stop offset="1" stop-color="#F4F4F4"/>
</linearGradient>
<linearGradient id="paint1_linear_60_152" x1="480" y1="256" x2="480" y2="768" gradientUnits="userSpaceOnUse">
<stop stop-color="#282828"/>
<stop offset="1" stop-color="#242424"/>
</linearGradient>
<linearGradient id="paint2_linear_60_152" x1="1600" y1="1024" x2="1600" y2="0" gradientUnits="userSpaceOnUse">
<stop stop-color="white"/>
<stop offset="1" stop-color="#F4F4F4"/>
</linearGradient>
<linearGradient id="paint3_linear_60_152" x1="1584" y1="256" x2="1584" y2="768" gradientUnits="userSpaceOnUse">
<stop stop-color="#282828"/>
<stop offset="1" stop-color="#242424"/>
</linearGradient>
<linearGradient id="paint4_linear_60_152" x1="2688" y1="1024" x2="2688" y2="0" gradientUnits="userSpaceOnUse">
<stop stop-color="white"/>
<stop offset="1" stop-color="#F4F4F4"/>
</linearGradient>
<linearGradient id="paint5_linear_60_152" x1="2672" y1="256" x2="2672" y2="768" gradientUnits="userSpaceOnUse">
<stop stop-color="#282828"/>
<stop offset="1" stop-color="#242424"/>
</linearGradient>
</defs>
</svg>
